<svg xmlns="http://www.w3.org/2000/svg" viewBox="0 0 24 24" role="img" aria-label="Dataset (JSON/CSV) icon">
  <path d="M7 3.5h7l3 3V20a1.5 1.5 0 0 1-1.5 1.5H7A1.5 1.5 0 0 1 5.5 20V5A1.5 1.5 0 0 1 7 3.5z" fill="#334155" opacity="0.95"/>
  <path d="M14 3.5V7h3" fill="none" stroke="#E2E8F0" stroke-width="1.2" stroke-linecap="round" stroke-linejoin="round"/>
  <path d="M8.4 10.2c-.7.5-1 .9-1 1.8v0c0 .9.3 1.3 1 1.8M15.6 10.2c.7.5 1 .9 1 1.8v0c0 .9-.3 1.3-1 1.8" fill="none" stroke="#E2E8F0" stroke-width="1.2" stroke-linecap="round"/>
  <path d="M11 11.2h2" stroke="#E2E8F0" stroke-width="1.2" stroke-linecap="round"/>
  <path d="M8.2 16.2h7.6" stroke="#E2E8F0" stroke-width="1.2" stroke-linecap="round"/>
</svg>
