<svg xmlns="http://www.w3.org/2000/svg" width="256" height="256" viewBox="0 0 256 256" role="img" aria-label="Framer Motion (FM) monogram">
  <title>Framer Motion</title>
  <desc>Custom FM monogram for situations where an official vector logo is unavailable.</desc>
  <defs>
    <linearGradient id="g" x1="0" y1="0" x2="1" y2="1">
      <stop offset="0" stop-color="#22d3ee"/>
      <stop offset="0.5" stop-color="#60a5fa"/>
      <stop offset="1" stop-color="#a78bfa"/>
    </linearGradient>
  </defs>
  <rect width="256" height="256" rx="56" fill="#0b1220"/>
  <rect x="32" y="32" width="192" height="192" rx="44" fill="url(#g)" opacity="0.16"/>
  <path d="M78 170V86c0-6.6 5.4-12 12-12h28c10.6 0 19.2 8.6 19.2 19.2 0 7.1-3.7 13.5-9.4 17.1 10.4 2.1 18.2 11.3 18.2 22.3V170h-18v-35.5c0-7.6-6.2-13.8-13.8-13.8H96v49.3H78zm18-66.5h21.2c6.4 0 11.6-5.2 11.6-11.6s-5.2-11.6-11.6-11.6H96v23.2z" fill="#e5e7eb"/>
  <path d="M160 170V86h18v30.9l22.9-30.9H222l-30.7 40.6L223 170h-22.4l-22.6-33.7V170h-18z" fill="#e5e7eb"/>
</svg>
