<svg xmlns="http://www.w3.org/2000/svg" viewBox="0 0 24 24" role="img" aria-label="GitHub logo">
  <path fill="#E2E8F0" d="M12 .8a11.2 11.2 0 0 0-3.5 21.8c.6.1.8-.3.8-.6v-2.1c-3.2.7-3.9-1.4-3.9-1.4-.5-1.3-1.2-1.6-1.2-1.6-1-.7.1-.7.1-.7 1.1.1 1.7 1.1 1.7 1.1 1 .1 2.7.7 3.3-.1.1-.7.4-1.2.7-1.5-2.6-.3-5.3-1.3-5.3-5.8 0-1.3.5-2.4 1.2-3.2-.1-.3-.5-1.5.1-3.1 0 0 1-.3 3.3 1.2a11 11 0 0 1 6 0C18.6 2.6 19.6 2.9 19.6 2.9c.6 1.6.2 2.8.1 3.1.8.8 1.2 1.9 1.2 3.2 0 4.5-2.7 5.5-5.3 5.8.4.4.8 1.1.8 2.2v3.3c0 .3.2.7.8.6A11.2 11.2 0 0 0 12 .8z"/>
</svg>
