<svg xmlns="http://www.w3.org/2000/svg" viewBox="0 0 24 24" role="img" aria-label="Tailwind CSS logo">
  <path d="M12 6.5c-2.7 0-4.4 1.35-5.1 4.05 1.02-1.35 2.2-1.86 3.55-1.52.77.19 1.32.75 1.94 1.37C13.41 11.41 14.66 12.55 17.1 12.55c2.7 0 4.4-1.35 5.1-4.05-1.02 1.35-2.2 1.86-3.55 1.52-.77-.19-1.32-.75-1.94-1.37C15.59 7.59 14.34 6.45 12 6.45z" fill="#38BDF8"/>
  <path d="M6.9 12.6c-2.7 0-4.4 1.35-5.1 4.05 1.02-1.35 2.2-1.86 3.55-1.52.77.19 1.32.75 1.94 1.37C8.41 17.51 9.66 18.65 12.1 18.65c2.7 0 4.4-1.35 5.1-4.05-1.02 1.35-2.2 1.86-3.55 1.52-.77-.19-1.32-.75-1.94-1.37C10.59 13.69 9.34 12.55 6.9 12.55z" fill="#38BDF8"/>
</svg>
