<svg xmlns="http://www.w3.org/2000/svg" viewBox="0 0 24 24" role="img" aria-label="Zustand logo">
  <path d="M7.6 9.1c-.9-1.9.2-4 2.2-4.6 1.3-.4 2.3.1 3.2.9.6-.8 1.5-1.3 2.8-.9 2 .6 3.1 2.7 2.2 4.6-.2.4-.4.7-.7 1 .9 1.1 1.5 2.5 1.5 4 0 3-2.6 5.5-8 5.5s-8-2.5-8-5.5c0-1.5.6-2.9 1.5-4-.3-.3-.5-.6-.7-1z" fill="#A16207"/>
  <circle cx="9.7" cy="13" r="1" fill="#111827"/>
  <circle cx="14.3" cy="13" r="1" fill="#111827"/>
  <path d="M10.7 15.3c.8.6 1.8.6 2.6 0" fill="none" stroke="#111827" stroke-width="1.2" stroke-linecap="round"/>
</svg>
